<svg xml:space="preserve" viewBox="0 0 100 100" y="0" x="0" xmlns="http://www.w3.org/2000/svg" id="圖層_1" version="1.1" style="height: 100%; width: 100%; background: transparent;" width="379px" height="379px"><g class="ldl-scale" style="transform-origin: 50% 50%; transform: rotate(0deg) scale(0.8, 0.8);"><g class="ldl-ani"><g class="ldl-layer"><g class="ldl-ani" style="transform-origin: 50px 50px; transform: rotate(-30deg); animation: 1.11111s linear -0.833333s infinite normal forwards running swing-a2b31ec5-602b-4535-b4ac-c7b11a93df5b;"><path fill="#333" d="M80.061 48.229a29.961 29.961 0 0 0-.713-4.967l9.175-4.439a39.752 39.752 0 0 0-4.814-10.527l-9.359 4.025a30.193 30.193 0 0 0-3.287-3.79l5.315-8.69a40.014 40.014 0 0 0-9.733-6.266l-5.698 8.447a29.778 29.778 0 0 0-4.816-1.42l-.226-10.182c-1.891-.272-3.822-.42-5.788-.42s-3.897.148-5.788.422l-.226 10.182c-1.661.338-3.268.82-4.816 1.42l-5.698-8.447a40.014 40.014 0 0 0-9.733 6.266l5.315 8.69a30.193 30.193 0 0 0-3.287 3.79l-9.359-4.025a39.83 39.83 0 0 0-4.814 10.527l9.175 4.439a29.961 29.961 0 0 0-.713 4.967L10.12 49.904l-.002.096c0 3.948.581 7.759 1.647 11.361l10.113-1.225a29.743 29.743 0 0 0 2.091 4.564l-7.548 6.84a40.178 40.178 0 0 0 7.584 8.746l7.844-6.497a30.011 30.011 0 0 0 4.219 2.718l-2.653 9.837a39.704 39.704 0 0 0 11.107 3.258l3.088-9.714c.827.068 1.662.112 2.507.112s1.68-.044 2.508-.112l3.088 9.714a39.694 39.694 0 0 0 11.107-3.258l-2.653-9.837a30.07 30.07 0 0 0 4.219-2.718l7.844 6.497a40.205 40.205 0 0 0 7.584-8.746l-7.548-6.84a29.831 29.831 0 0 0 2.091-4.564l10.113 1.225A39.974 39.974 0 0 0 90.117 50l-.002-.096-10.054-1.675zM50 70c-11.046 0-20-8.954-20-20s8.954-20 20-20 20 8.954 20 20-8.954 20-20 20z" style="fill: rgb(51, 51, 51);"></path></g></g><g class="ldl-layer"><g class="ldl-ani" style="transform-origin: 50px 50px; transform: rotate(-30deg); animation: 1.11111s linear -1.11111s infinite normal forwards running swing-a2b31ec5-602b-4535-b4ac-c7b11a93df5b;"><path fill="#f8b26a" d="M60.678 60.884c3.567-3.567 4.981-8.46 4.268-13.09-.091-.589-.822-.821-1.243-.4l-9.189 9.188a2.411 2.411 0 0 1-2.329.624l-6.049-1.621a2.412 2.412 0 0 1-1.705-1.705l-1.621-6.049a2.411 2.411 0 0 1 .624-2.329l9.188-9.188c.423-.423.188-1.154-.403-1.245-5.023-.771-10.353.959-13.965 5.224-4.063 4.798-4.622 11.62-1.764 17.001L11.626 78.386a7.077 7.077 0 1 0 10.003 10.003l21.089-24.86c5.767 3.09 13.095 2.22 17.96-2.645zM14.314 85.702a3.333 3.333 0 1 1 4.715-4.713 3.333 3.333 0 0 1-4.715 4.713z" style="fill: rgb(248, 178, 106);"></path></g></g><metadata xmlns:d="https://loading.io/stock/"><d:name>wrench</d:name><d:tags>config,setting,machinary,profile,setup,edit,asembly,wrench,gear</d:tags><d:license>by</d:license><d:slug>6ut2m6</d:slug></metadata></g></g></svg>